<?xml version="1.0" encoding="utf-8"?>
<!-- Generator: Adobe Illustrator 19.0.0, SVG Export Plug-In . SVG Version: 6.00 Build 0)  -->
<svg version="1.1" id="Camada_1" xmlns="http://www.w3.org/2000/svg" xmlns:xlink="http://www.w3.org/1999/xlink" x="0px" y="0px"
	 viewBox="0 0 511.8 121.4" style="enable-background:new 0 0 511.8 121.4;" xml:space="preserve">
<path style="fill:#003865;" d="M3.9,52.3c0,0-3.9,0-3.9,3.9v61.4c0,0,0,3.9,3.9,3.9h504c0,0,3.9,0,3.9-3.9V56.1c0,0,0-3.9-3.9-3.9
	H3.9L3.9,52.3z"/>
<path style="fill:#003865;" d="M9.9,0h5.6v19.8c1-2.1,2.6-3.6,4.8-4.4c2.3-0.7,4.6-1.2,7-1.3c0.7,0,1.3-0.1,2-0.1h1.9h3.2v4.4
	c-1.5,0-3,0-4.5,0.1c-1.9,0-3.8,0.2-5.7,0.4c-4.3,0.5-6.7,1.9-7.5,4.3c-0.7,2.5-1.1,5.2-1.1,8.3v1.2c0,0.4,0.1,0.8,0.1,1.2
	c0.1,1.7,0.4,3.4,1.1,5c0.7,1.6,2.1,2.8,4.1,3.6c0.9,0.3,2.1,0.6,3.5,0.7c1.3,0.2,2.8,0.3,4.2,0.4c1.4,0.1,2.7,0.1,3.9,0.1h1.9v4.4
	h-1.3H32h-1.3c-3.2,0-6-0.3-8.6-0.9c-2.6-0.5-4.7-2.1-6.5-4.7v5.1H9.9V0L9.9,0z M71.5,14.4h5.7v5.8c1-2.4,2.6-4,5-4.8
	c2.4-0.8,4.9-1.3,7.5-1.4h1.4h1.3c6.4,0,11.4,0.6,14.7,1.9c3.4,1.4,5,5.2,5,11.7v0.4v0.4v0.4v0.4l-5.7-0.1c0-4-0.7-6.8-2.1-8.3
	c-1.4-1.6-4.7-2.4-9.6-2.4h-2c-4.9,0.1-8.7,0.7-11.5,1.9c-2.6,1.2-4,4.2-4,8.9v18.6h-5.7V14.4L71.5,14.4z M143.5,27.7v4.3H143h-1
	h-2.9c-1,0-2.1,0.1-3.2,0.2c-1.2,0-2.4,0.1-3.6,0.3c-1.1,0.2-2.2,0.4-3.1,0.7c-1.3,0.4-2.1,1.1-2.5,2c-0.4,0.9-0.6,2-0.6,3
	c0,2.5,0.9,4,2.7,4.5c1.8,0.6,3.9,0.9,6.2,0.9l6.7,0.1h1.8v4.3c-0.6,0.1-1.2,0.1-1.9,0.1h-4.9h-0.4h-0.4c-3.9-0.1-7.6-0.6-11-1.7
	c-3.3-1-5-3.7-5-8.2c0-3.5,0.8-6.1,2.3-7.5c1.6-1.5,4.4-2.4,8.5-2.7c0.9-0.1,1.9-0.2,2.8-0.2c0.9,0,1.8-0.1,2.7-0.1h2.8h2.8H143.5
	L143.5,27.7z M143.5,14v4.3h-2c-1,0-1.9,0.1-2.8,0.1c-0.9,0-1.8,0-2.8,0.1c-0.9,0.1-1.8,0.2-2.7,0.3c-2.1,0.2-3.5,0.8-4.2,1.7
	c-0.7,0.9-1.1,2.2-1.1,3.9l-6.2-0.1c0-3.6,0.9-6.1,2.8-7.4c1.9-1.3,4.8-2.2,8.8-2.5c0.7-0.1,1.5-0.2,2.2-0.2
	c0.7-0.1,1.5-0.1,2.2-0.2h2.2h2.2H143.5L143.5,14z M34.5,14h1.1c8,0,14.1,0.9,18,2.7c4,1.7,6,6.6,6,14.5c0,7.9-2,12.8-5.8,14.5
	c-3.8,1.7-10,2.6-18.2,2.6h-1.1v-4.4h1.4h2.8c1.1,0,2.2,0,3.4-0.1c1.3,0,2.5-0.1,3.7-0.3c1.1-0.2,2.1-0.4,2.9-0.8
	c1.8-0.6,2.9-1.6,3.5-3.1c0.6-1.4,1-2.9,1.1-4.4c0-0.4,0.1-0.8,0.1-1.2v-1.1v-1.5v-0.2v-0.2c0-2.8-0.4-5.4-1.2-7.8
	c-0.7-2.4-3.1-3.8-7-4.2c-0.8-0.1-1.6-0.2-2.4-0.2c-0.7-0.1-1.5-0.1-2.4-0.1c-0.8-0.1-1.6-0.1-2.4-0.1h-2.4h-1.1V14L34.5,14z
	 M266.3,0h5.7v6.2h-5.7V0L266.3,0z M266.3,14.4h5.7v33.4h-5.7V14.4L266.3,14.4z M247.5,0h5.6v47.8h-5.6V0L247.5,0z M228.7,0h5.6v6.2
	h-5.6V0L228.7,0z M228.7,14.4h5.6v33.4h-5.6V14.4L228.7,14.4z M219.4,14.4v4.9l-35.1,24.1h35.1v4.3h-43.3v-5.1l35.2-24h-33.6v-4.2
	H219.4L219.4,14.4z M143.5,48.2v-4.3h1.5h3.8c1.3-0.1,2.7-0.2,4-0.3c1.3-0.2,2.4-0.3,3.5-0.6c1.4-0.3,2.6-1,3.4-1.8
	c0.8-0.9,1.2-1.9,1.2-3.3c0-0.9-0.3-1.9-0.8-2.7c-0.5-0.9-1.3-1.5-2.4-1.9c-0.9-0.4-2.1-0.7-3.6-0.8c-1.5-0.2-3-0.3-4.6-0.3h-1.2
	H147h-1.4h-1.4h-0.7v-4.3h3.7c1.8,0.1,3.6,0.1,5.4,0.2c1.7,0.1,3.1,0.3,4.1,0.7c1.1,0.3,2.1,0.9,3.1,1.8c0.1,0.2,0.3,0.4,0.5,0.6
	c0.2,0.2,0.4,0.4,0.6,0.6V28v-1.1c0-0.4,0-0.9-0.1-1.3c-0.1-1.1-0.3-2.2-0.7-3.2c-0.5-1.1-1.2-1.9-2.3-2.5c-0.7-0.5-1.8-0.8-3.3-1
	c-1.4-0.2-2.9-0.4-4.5-0.4c-1-0.1-2-0.1-3-0.1c-1,0-2-0.1-2.8-0.1h-0.7V14h1.9h3.4c1.7,0.1,3.3,0.2,5,0.4c1.6,0.1,3.3,0.4,4.8,0.8
	c3.6,0.8,5.8,2.2,6.7,4.4c0.8,2.1,1.3,4.6,1.3,7.4v20.7H161v-3.9c-1,1.5-2.3,2.6-3.7,3.1c-1.5,0.6-3.2,0.9-5.1,1
	c-1.7,0.1-3.5,0.2-5.2,0.2H143.5L143.5,48.2z M306.9,27.7v4.3h-0.5h-1h-2.9c-1,0-2,0.1-3.1,0.2c-1.3,0-2.5,0.1-3.5,0.3
	c-1.2,0.2-2.3,0.4-3.2,0.7c-1.3,0.4-2.1,1.1-2.5,2c-0.4,0.9-0.6,2-0.6,3c0,2.5,0.9,4,2.8,4.5c1.8,0.6,3.8,0.9,6.1,0.9l6.6,0.1h1.8
	v4.3c-0.6,0.1-1.2,0.1-1.8,0.1h-5h-0.3h-0.4c-3.9-0.1-7.5-0.6-11-1.7c-3.3-1-5-3.7-5-8.2c0-3.5,0.8-6.1,2.4-7.5
	c1.5-1.5,4.3-2.4,8.5-2.7c1-0.1,1.9-0.2,2.7-0.2c0.9,0,1.9-0.1,2.8-0.1h2.7h2.8H306.9L306.9,27.7z M306.9,14v4.3h-2
	c-0.9,0-1.8,0.1-2.8,0.1c-0.9,0-1.8,0-2.7,0.1c-0.9,0.1-1.9,0.2-2.8,0.3c-2,0.2-3.3,0.8-4.1,1.7c-0.7,0.9-1.1,2.2-1.1,3.9l-6.2-0.1
	c0-3.6,1-6.1,2.8-7.4c1.9-1.3,4.8-2.2,8.7-2.5c0.7-0.1,1.5-0.2,2.2-0.2c0.8-0.1,1.5-0.1,2.3-0.2h2.2h2.2H306.9L306.9,14z
	 M343.2,14.4h5.7v6.8c1.3-3.2,3.5-5.2,6.6-6c3-0.8,6.3-1.2,9.9-1.2h0.8h0.8l0.7-0.1c1,0,1.9,0.1,2.9,0.1c1,0,2,0.1,3,0.1
	c2,0.1,4.1,0.4,6,0.9c2,0.4,3.8,1.2,5.4,2.3c1.9,1.3,3.1,2.9,3.5,4.7c0.4,1.8,0.6,3.7,0.6,5.7v20h-5.7V28.1c0-4.5-1.5-7.3-4.5-8.3
	c-3-1-6.7-1.5-11.3-1.5h-0.6h-0.7c-4.3,0-8.3,0.6-12,1.6c-3.7,1.1-5.5,4.1-5.5,9v18.8h-5.7V14.4L343.2,14.4z M306.9,48.2v-4.3h1.6
	h3.7c1.4-0.1,2.7-0.2,4-0.3c1.3-0.2,2.5-0.3,3.5-0.6c1.5-0.3,2.6-1,3.4-1.8c0.8-0.9,1.2-1.9,1.2-3.3c0-0.9-0.2-1.9-0.7-2.7
	c-0.6-0.9-1.3-1.5-2.4-1.9c-1-0.4-2.2-0.7-3.7-0.8c-1.4-0.2-3-0.3-4.5-0.3h-1.3h-1.3H309h-1.3h-0.8v-4.3h3.8
	c1.8,0.1,3.6,0.1,5.3,0.2c1.7,0.1,3.1,0.3,4.1,0.7c1.1,0.3,2.1,0.9,3.1,1.8c0.2,0.2,0.3,0.4,0.5,0.6c0.2,0.2,0.4,0.4,0.6,0.6V28
	v-1.1v-1.3c-0.2-1.1-0.4-2.2-0.8-3.2c-0.4-1.1-1.2-1.9-2.3-2.5c-0.7-0.5-1.8-0.8-3.2-1c-1.5-0.2-3-0.4-4.6-0.4c-1-0.1-2-0.1-3-0.1
	c-1,0-1.9-0.1-2.7-0.1h-0.8V14h1.9h3.4c1.7,0.1,3.4,0.2,5,0.4c1.7,0.1,3.3,0.4,4.9,0.8c3.5,0.8,5.7,2.2,6.6,4.4
	c0.9,2.1,1.3,4.6,1.3,7.4v20.7h-5.7v-3.9c-1,1.5-2.2,2.6-3.7,3.1c-1.5,0.6-3.1,0.9-5,1c-1.8,0.1-3.5,0.2-5.3,0.2H306.9L306.9,48.2z"
	/>
<path style="fill:#FFFFFF;" d="M10.5,71.1h5.7v5.2c1.4-2.5,3.3-4,5.9-4.6c2.5-0.6,5.2-0.9,8.2-0.9l4.7-0.1v4.4h-0.7h-1.9
	c-0.7,0-1.4,0-2.1,0.1c-1.2,0-2.3,0-3.5,0.1c-1.1,0.1-2.1,0.3-3,0.5c-3.6,0.7-5.8,2.2-6.5,4.4c-0.7,2.3-1.1,4.8-1.1,7.5
	c0,6.1,1.5,9.6,4.4,10.6c3,1.1,7.1,1.7,12.6,1.8h0.3h0.4h0.7c0.2,0,0.3,0,0.5,0.1v4.2l-6.8-0.1c-2.7,0-5.1-0.4-7.3-1.1
	c-2.2-0.7-3.8-2.3-4.7-4.7V118h-5.7V71.1L10.5,71.1z M118.3,103.9h-5.7v-6.4c-1.2,2.7-3.1,4.4-5.7,5.3c-2.6,0.9-5.4,1.4-8.3,1.5
	c-0.6,0.1-1.2,0.1-1.8,0.1H95h-0.2c-5.6,0-10.7-0.7-15.5-1.9c-4.7-1.3-7-5-7-11.1V71.1h5.6v18c0,5.2,1.4,8.4,4.1,9.4
	c2.7,1.1,6.7,1.7,12.1,1.7c5,0,9.3-0.6,13-1.6c3.7-1.1,5.5-4.2,5.5-9.5v-18h5.7V103.9L118.3,103.9z M156,70.7v4.4h-4.6
	c-1.8,0.1-3.7,0.2-5.6,0.5c-4.3,0.4-6.8,1.9-7.5,4.2c-0.7,2.5-1.1,5.1-1.1,8.3V88v1.2c0,0.4,0,0.8,0.1,1.2c0.1,1.8,0.4,3.3,1.1,5
	c0.7,1.6,2,2.7,4.1,3.5c0.9,0.3,2.1,0.6,3.5,0.7c1.3,0.2,2.8,0.3,4.2,0.4c1.4,0.1,2.7,0.2,3.9,0.2h1.9v4.2c-0.4,0-0.9,0-1.3,0.1
	h-1.2h-1.3c-3.2,0-6-0.3-8.6-0.9c-2.6-0.6-4.7-2.2-6.5-4.7v5h-5.7v-47h5.7v19.6c1-2.2,2.6-3.6,4.8-4.3c2.3-0.8,4.6-1.2,7-1.4h2h1.8
	L156,70.7L156,70.7z M35.1,70.7h1.3c8,0,14,0.9,17.9,2.7c3.9,1.8,5.8,6.5,5.8,14.1c0,5.3-1,9.4-3,12.2c-2.1,2.8-6.6,4.3-13.6,4.5
	c-1.2,0.1-2.4,0.2-3.5,0.2h-3.5h-1.4v-4.2h0.1h0.6h0.6c6.4,0,11-0.7,13.7-1.9c2.6-1.2,3.9-4.7,3.9-10.5c0-6.3-1.2-9.9-3.7-11
	c-2.5-1.2-7.1-1.7-13.9-1.7h-1.3V70.7L35.1,70.7z M288.9,56.9h5.7v20.7c1.2-2.7,3-4.4,5.7-5.3c2.7-0.9,5.5-1.5,8.4-1.6
	c0.8,0,1.6-0.1,2.3-0.1h2.1c5.9,0,11.2,0.5,15.8,1.6c4.6,1.2,6.9,4.9,6.9,11.2v20.4h-5.6V83.5c0-1.7-0.3-3.2-0.9-4.4
	c-0.6-1.3-1.9-2.2-3.9-2.8c-1.3-0.4-2.7-0.7-4.2-0.9c-1.4-0.2-2.9-0.3-4.4-0.3h-1.3h-1.3h-2.7c-0.9,0-1.8,0-2.8,0.1
	c-3.5,0.1-6.8,0.9-9.8,2.1c-2.8,1.2-4.3,3.7-4.3,7.6v19.2h-5.7V56.9L288.9,56.9z M276.2,80.2h-5.7c-0.3-1.9-0.8-3.1-1.6-3.7
	c-0.8-0.6-2.4-1-4.7-1.2c-0.6-0.1-1.2-0.1-1.9-0.1c-0.6-0.1-1.2-0.1-1.8-0.1c-1.3-0.1-2.5-0.1-3.8-0.1h-3.7c-1.8,0-3.6,0-5.4,0.1
	c-1.8,0-3.5,0.1-5.3,0.4c-1.7,0.2-3.1,0.6-4.4,1.2c-1.3,0.5-1.9,1.7-1.9,3.2c0,2.2,0.7,3.5,2,4c1.3,0.6,3.1,0.9,5.2,0.9l10,0.1h10.6
	c4.2,0.1,7.6,0.7,10.2,1.9c2.5,1.2,3.8,3.7,3.8,7.8c0,4.4-1.4,7.1-4.1,8c-2.8,0.9-6.1,1.5-10,1.6h-1.2c-0.4,0.1-0.8,0.1-1.2,0.1
	c-0.9,0-1.8,0.1-2.6,0.1h-2.7c-0.9,0.1-1.8,0.1-2.7,0.1h-2.7h-2.5c-0.8,0-1.7,0-2.7-0.1c-1.3,0-2.7-0.1-4-0.2
	c-1.3-0.1-2.5-0.2-3.6-0.4c-3.3-0.6-5.5-1.6-6.6-3.1c-1.1-1.5-1.7-3.5-1.7-6.2V94c0-0.2,0-0.3,0.1-0.4v-0.3v-0.4l5.8-0.1v0.5v0.3
	c0,2.4,0.6,3.9,1.8,4.7c1.1,0.8,3,1.3,5.6,1.6c1.6,0,3.3,0.1,5,0.1c1.6,0.1,3.3,0.2,5,0.2c2.2,0,4.4-0.1,6.5-0.1
	c2.2-0.1,4.4-0.2,6.5-0.4c1.8-0.2,3.2-0.6,4.3-1.2c1-0.6,1.5-1.6,1.5-3.1c0-2.6-0.7-4.1-2.1-4.9c-1.5-0.8-3.5-1.2-6.3-1.2l-10.4-0.1
	h-9.8c-3.8,0-6.9-0.4-9.5-1.5c-2.5-1-3.7-3.4-3.7-7.2c0-3.4,1.1-5.8,3.4-7.2c2.3-1.3,5.3-2.1,8.9-2.3c0.9,0,1.8-0.1,2.7-0.1
	c0.9-0.1,1.8-0.1,2.7-0.2c0.9,0,1.8-0.1,2.7-0.1h2.7h3.1c1,0,2,0,3.1,0.1h3c1,0.1,2,0.1,3.1,0.2c3.9,0.3,6.6,1.1,8.2,2.4
	C275.1,74.7,276,77,276.2,80.2L276.2,80.2L276.2,80.2z M211.8,56.9h5.7V63h-5.7V56.9L211.8,56.9z M211.8,71.1h5.7v32.8h-5.7V71.1
	L211.8,71.1z M193,56.9h5.7v47H193V56.9L193,56.9z M156,104.4v-4.2h1.4h2.8c1.1,0,2.2-0.1,3.4-0.2c1.3,0,2.5-0.1,3.7-0.3
	c1.1-0.2,2.1-0.4,2.9-0.8c1.8-0.6,2.9-1.7,3.5-3.1c0.6-1.4,1-2.8,1.1-4.4c0-0.3,0.1-0.7,0.1-1.1v-1.2v-1.5v-0.2v-0.2
	c0-2.7-0.4-5.3-1.2-7.7c-0.7-2.4-3.1-3.8-7-4.2c-0.8-0.1-1.6-0.2-2.4-0.2c-0.7-0.1-1.5-0.1-2.4-0.1h-2.4h-2.4H156v-4.4h1.1
	c8,0,14.1,0.9,18,2.7c4,1.8,6,6.5,6,14.2c0,7.9-2,12.6-5.8,14.2c-3.9,1.7-10,2.6-18.2,2.6H156L156,104.4z M369.9,70.7V75h-1.7
	c-0.8,0-1.7,0.1-2.6,0.1c-0.9,0-1.8,0-2.7,0.1c-1.7,0.1-3.3,0.3-4.9,0.7c-1.6,0.3-2.9,0.9-3.9,1.6c-0.9,0.6-1.5,1.4-1.9,2.2
	c-0.3,0.9-0.6,1.8-0.7,2.7c0,0.2-0.1,0.6-0.1,0.9v0.9h18.6v4.1h-18.8c0.1,2.7,0.6,5.2,1.4,7.2c0.9,2.1,3.1,3.3,6.7,4
	c0.9,0.2,1.9,0.3,3,0.4c1.1,0.1,2.1,0.2,3.1,0.2c0.9,0,1.6,0.1,2.4,0.1h2.1v4.2c-6.8-0.2-12.5-0.9-16.9-2.1
	c-5.1-1.4-7.6-6.3-7.6-14.7c0-6.9,1.6-11.4,4.7-13.7c3.1-2.3,8.6-3.3,16.3-3.3h1h1c0.4,0.1,0.7,0.1,1,0.1H369.9L369.9,70.7z
	 M500.8,80.2H495c-0.2-1.9-0.7-3.1-1.5-3.7c-0.9-0.6-2.4-1-4.8-1.2c-0.6-0.1-1.2-0.1-1.8-0.1c-0.7-0.1-1.3-0.1-1.9-0.1
	c-1.2-0.1-2.5-0.1-3.7-0.1h-3.8c-1.8,0-3.6,0-5.3,0.1c-1.8,0-3.6,0.1-5.3,0.4c-1.7,0.2-3.2,0.6-4.5,1.2c-1.2,0.5-1.9,1.7-1.9,3.2
	c0,2.2,0.7,3.5,2,4c1.3,0.6,3.1,0.9,5.3,0.9l9.9,0.1h10.8c4.1,0.1,7.5,0.7,10,1.9c2.6,1.2,3.9,3.7,3.9,7.8c0,4.4-1.4,7.1-4.2,8
	c-2.7,0.9-6,1.5-9.9,1.6h-1.3c-0.4,0.1-0.8,0.1-1.2,0.1c-0.8,0-1.7,0.1-2.6,0.1h-2.6c-1,0.1-1.9,0.1-2.7,0.1H475h-2.5
	c-0.9,0-1.8,0-2.7-0.1c-1.4,0-2.7-0.1-4-0.2c-1.4-0.1-2.6-0.2-3.7-0.4c-3.2-0.6-5.4-1.6-6.6-3.1c-1.1-1.5-1.7-3.5-1.7-6.2V94
	c0-0.2,0.1-0.3,0.1-0.4v-0.3v-0.4l5.8-0.1c0.1,0.2,0.1,0.3,0.1,0.5v0.3c0,2.4,0.6,3.9,1.7,4.7c1.2,0.8,3,1.3,5.6,1.6
	c1.7,0,3.3,0.1,5,0.1c1.7,0.1,3.3,0.2,5,0.2c2.2,0,4.4-0.1,6.6-0.1c2.2-0.1,4.3-0.2,6.5-0.4c1.8-0.2,3.2-0.6,4.2-1.2
	c1-0.6,1.6-1.6,1.6-3.1c0-2.6-0.8-4.1-2.2-4.9c-1.4-0.8-3.5-1.2-6.2-1.2l-10.4-0.1h-10c-3.8,0-6.9-0.4-9.5-1.5
	c-2.4-1-3.7-3.4-3.7-7.2c0-3.4,1.2-5.8,3.5-7.2c2.3-1.3,5.2-2.1,8.9-2.3c0.9,0,1.8-0.1,2.7-0.1c0.9-0.1,1.8-0.1,2.8-0.2
	c0.8,0,1.7-0.1,2.6-0.1h2.7h3.1c1,0,2.1,0,3.1,0.1h3c1,0.1,2.1,0.1,3.1,0.2c3.9,0.3,6.7,1.1,8.3,2.4C499.8,74.7,500.6,77,500.8,80.2
	L500.8,80.2L500.8,80.2z M406.5,71.1h5.7v5.8c0.9-2.4,2.5-3.9,4.9-4.8c2.4-0.8,4.9-1.3,7.5-1.3c0.5-0.1,1-0.1,1.4-0.1h1.4
	c6.4,0,11.3,0.6,14.7,2c3.3,1.3,5,5.1,5,11.4v0.4v0.4c-0.1,0.1-0.1,0.3-0.1,0.4v0.4l-5.6-0.1c0-3.9-0.8-6.7-2.2-8.2
	c-1.4-1.5-4.6-2.3-9.7-2.3h-2c-4.9,0-8.7,0.7-11.5,1.9c-2.6,1.2-3.9,4.1-3.9,8.7v18.3h-5.7V71.1L406.5,71.1z M369.9,88.3v-4.1h18.6
	c0-0.2,0-0.4-0.1-0.7v-0.7c-0.1-1-0.3-1.9-0.6-2.8c-0.3-0.9-0.9-1.7-1.9-2.5c-0.9-0.8-2.1-1.3-3.7-1.7c-1.5-0.4-3.1-0.6-4.7-0.7
	c-0.8,0-1.6-0.1-2.4-0.1h-2.3h-2.8v-4.3h0.4h0.7c0.3,0,0.5,0.1,0.7,0.1c7.1,0.2,12.7,1.1,16.7,2.5c4,1.5,6,6,6,13.5v0.4v0.4
	c-0.1,0.1-0.1,0.3-0.1,0.4v0.4H369.9L369.9,88.3z M369.9,104.4v-4.2h0.3h3h1.8h1.8c1.4-0.1,2.8-0.2,4.2-0.4c1.3-0.1,2.5-0.4,3.5-0.8
	c1.2-0.5,2.1-1.2,2.7-1.9c0.6-0.8,0.9-1.8,1-3l6-0.1c0,3.9-1.6,6.6-4.8,7.9c-3.2,1.3-6.7,2.1-10.6,2.3c-1.1,0.1-2.2,0.1-3.3,0.1
	c-1,0.1-2.1,0.1-3.1,0.1H369.9L369.9,104.4z"/>
</svg>
